<svg id="Capa_1" enable-background="new 0 0 512 512" height="512" viewBox="0 0 512 512" width="512" xmlns="http://www.w3.org/2000/svg" xmlns:xlink="http://www.w3.org/1999/xlink"><linearGradient id="SVGID_1_" gradientUnits="userSpaceOnUse" x1="256" x2="256" y1="512" y2="0"><stop offset="0" stop-color="#ffbef9"/><stop offset="1" stop-color="#fff1ff"/></linearGradient><linearGradient id="SVGID_2_" gradientUnits="userSpaceOnUse" x1="256" x2="256" y1="407" y2="105"><stop offset="0" stop-color="#ff81ff"/><stop offset="1" stop-color="#a93aff"/></linearGradient><g><g><circle cx="256" cy="256" fill="url(#SVGID_1_)" r="256"/></g><g><g><path d="m229.353 140.529h53.294c4.91 0 8.882-3.973 8.882-8.882s-3.973-8.882-8.882-8.882h-53.294c-4.91 0-8.882 3.973-8.882 8.882 0 4.91 3.972 8.882 8.882 8.882zm151 79.942c-4.91 0-8.882 3.973-8.882 8.882v53.294c0 4.91 3.973 8.882 8.882 8.882s8.882-3.973 8.882-8.882v-53.294c0-4.91-3.973-8.882-8.882-8.882zm-257.588-63.813v37.166c0 4.91 3.973 8.882 8.882 8.882 4.91 0 8.882-3.973 8.882-8.882v-37.166c7.525-2.684 13.445-8.604 16.129-16.129h37.166c4.91 0 8.882-3.973 8.882-8.882s-3.973-8.882-8.882-8.882h-37.166c-3.679-10.317-13.446-17.765-25.011-17.765-14.694 0-26.647 11.953-26.647 26.647 0 11.565 7.448 21.332 17.765 25.011zm195.412-16.129h37.166c2.684 7.525 8.604 13.445 16.129 16.129v37.166c0 4.91 3.973 8.882 8.882 8.882s8.882-3.973 8.882-8.882v-37.166c10.316-3.679 17.764-13.446 17.764-25.011 0-14.694-11.953-26.647-26.647-26.647-11.565 0-21.332 7.448-25.011 17.765h-37.166c-4.91 0-8.882 3.973-8.882 8.882 0 4.91 3.973 8.882 8.883 8.882zm71.058 214.813v-37.166c0-4.91-3.973-8.882-8.882-8.882-4.91 0-8.882 3.973-8.882 8.882v37.166c-7.525 2.684-13.445 8.604-16.129 16.129h-37.166c-4.91 0-8.882 3.973-8.882 8.882s3.973 8.882 8.882 8.882h37.166c3.679 10.317 13.446 17.765 25.011 17.765 14.694 0 26.647-11.953 26.647-26.647 0-11.565-7.448-21.332-17.765-25.011zm-97.706-37.166c-4.892 0-8.882-3.981-8.882-8.882v-79.941h26.647c4.892 0 8.882 3.981 8.882 8.882 0 4.909 3.973 8.882 8.882 8.882 4.91 0 8.882-3.973 8.882-8.882v-53.294c0-4.91-3.973-8.882-8.882-8.882h-142.117c-4.91 0-8.882 3.973-8.882 8.882v53.294c0 4.909 3.973 8.882 8.882 8.882 4.91 0 8.882-3.973 8.882-8.882 0-4.901 3.99-8.882 8.882-8.882h26.647v79.941c0 4.901-3.99 8.882-8.882 8.882-4.91 0-8.882 3.973-8.882 8.882 0 4.91 3.973 8.883 8.882 8.883h71.059c4.91 0 8.882-3.973 8.882-8.883.001-4.909-3.972-8.882-8.882-8.882zm-8.882 53.295h-53.294c-4.91 0-8.882 3.973-8.882 8.882s3.973 8.882 8.882 8.882h53.294c4.91 0 8.882-3.973 8.882-8.882s-3.972-8.882-8.882-8.882zm-151-151c-4.909 0-8.882 3.973-8.882 8.882v53.294c0 4.91 3.973 8.882 8.882 8.882 4.91 0 8.882-3.973 8.882-8.882v-53.294c0-4.91-3.972-8.882-8.882-8.882zm62.176 151h-37.166c-2.684-7.525-8.604-13.445-16.129-16.129v-37.166c0-4.91-3.973-8.882-8.882-8.882s-8.882 3.973-8.882 8.882v37.166c-10.316 3.679-17.764 13.446-17.764 25.011 0 14.694 11.953 26.647 26.647 26.647 11.565 0 21.332-7.448 25.011-17.765h37.166c4.91 0 8.882-3.973 8.882-8.882s-3.973-8.882-8.883-8.882z" fill="url(#SVGID_2_)"/></g></g></g></svg>